{
  "accessors": [
    {
      "bufferView": 2,
      "componentType": 5126,
      "count": 658,
      "max": [
        0.6679596900939941,
        0.32601261138916016,
        1.802702784538269
      ],
      "min": [
        -0.6775804758071899,
        -0.21828985214233398,
        -2.2859878540039063
      ],
      "type": "VEC3"
    },
    {
      "bufferView": 2,
      "byteOffset": 7896,
      "componentType": 5126,
      "count": 658,
      "max": [
        1.0,
        1.0,
        1.0
      ],
      "min": [
        -1.0,
        -1.0,
        -1.0
      ],
      "type": "VEC3"
    },
    {
      "bufferView": 3,
      "componentType": 5126,
      "count": 658,
      "max": [
        1.0,
        1.0,
        1.0,
        1.0
      ],
      "min": [
        -1.0,
        -1.0,
        -1.0,
        -1.0
      ],
      "type": "VEC4"
    },
    {
      "bufferView": 1,
      "componentType": 5126,
      "count": 658,
      "max": [
        0.9993946552276611,
        0.9352189898490906
      ],
      "min": [
        0.0006054010591469705,
        0.0006054010591469705
      ],
      "type": "VEC2"
    },
    {
      "bufferView": 1,
      "byteOffset": 5264,
      "componentType": 5126,
      "count": 658,
      "max": [
        0.9993946552276611,
        0.9352189898490906
      ],
      "min": [
        0.0006054010591469705,
        0.0006054010591469705
      ],
      "type": "VEC2"
    },
    {
      "bufferView": 1,
      "byteOffset": 10528,
      "componentType": 5126,
      "count": 658,
      "max": [
        0.9993946552276611,
        0.9352189898490906
      ],
      "min": [
        0.0006054010591469705,
        0.0006054010591469705
      ],
      "type": "VEC2"
    },
    {
      "bufferView": 0,
      "componentType": 5125,
      "count": 1656,
      "type": "SCALAR"
    },
    {
      "bufferView": 2,
      "byteOffset": 15792,
      "componentType": 5126,
      "count": 1629,
      "max": [
        0.668947160243988,
        0.3537905216217041,
        6.92755126953125
      ],
      "min": [
        -0.6401982307434082,
        -0.12296009063720703,
        -1.3526604175567627
      ],
      "type": "VEC3"
    },
    {
      "bufferView": 2,
      "byteOffset": 35340,
      "componentType": 5126,
      "count": 1629,
      "max": [
        1.0,
        1.0,
        1.0
      ],
      "min": [
        -1.0,
        -1.0,
        -1.0
      ],
      "type": "VEC3"
    },
    {
      "bufferView": 3,
      "byteOffset": 10528,
      "componentType": 5126,
      "count": 1629,
      "max": [
        0.9999977350234985,
        0.9988988637924194,
        1.0,
        1.0
      ],
      "min": [
        -0.9998220801353455,
        -0.9991923570632935,
        -1.0,
        1.0
      ],
      "type": "VEC4"
    },
    {
      "bufferView": 1,
      "byteOffset": 15792,
      "componentType": 5126,
      "count": 1629,
      "max": [
        0.9017795920372009,
        0.9830899834632874
      ],
      "min": [
        0.0006054010591469705,
        0.0006054010591469705
      ],
      "type": "VEC2"
    },
    {
      "bufferView": 1,
      "byteOffset": 28824,
      "componentType": 5126,
      "count": 1629,
      "max": [
        0.9017795920372009,
        0.9830899834632874
      ],
      "min": [
        0.0006054010591469705,
        0.0006054010591469705
      ],
      "type": "VEC2"
    },
    {
      "bufferView": 1,
      "byteOffset": 41856,
      "componentType": 5126,
      "count": 1629,
      "max": [
        0.9017795920372009,
        0.9830899834632874
      ],
      "min": [
        0.0006054010591469705,
        0.0006054010591469705
      ],
      "type": "VEC2"
    },
    {
      "bufferView": 0,
      "byteOffset": 6624,
      "componentType": 5125,
      "count": 5838,
      "type": "SCALAR"
    },
    {
      "bufferView": 2,
      "byteOffset": 54888,
      "componentType": 5126,
      "count": 118,
      "max": [
        0.31527161598205566,
        0.3204076290130615,
        1.4664902687072754
      ],
      "min": [
        -0.030868642032146454,
        -0.025732994079589844,
        0.9872205853462219
      ],
      "type": "VEC3"
    },
    {
      "bufferView": 2,
      "byteOffset": 56304,
      "componentType": 5126,
      "count": 118,
      "max": [
        0.9951868653297424,
        0.9951868653297424,
        1.0
      ],
      "min": [
        -0.9951868653297424,
        -0.9951868653297424,
        -0.7537744641304016
      ],
      "type": "VEC3"
    },
    {
      "bufferView": 3,
      "byteOffset": 36592,
      "componentType": 5126,
      "count": 118,
      "max": [
        0.756464421749115,
        0.9951848983764648,
        0.0,
        1.0
      ],
      "min": [
        -0.6528864502906799,
        -0.7481614947319031,
        -0.9999898672103882,
        1.0
      ],
      "type": "VEC4"
    },
    {
      "bufferView": 1,
      "byteOffset": 54888,
      "componentType": 5126,
      "count": 118,
      "max": [
        0.8653697967529297,
        0.2160871922969818
      ],
      "min": [
        0.6526024341583252,
        0.0006054010591469705
      ],
      "type": "VEC2"
    },
    {
      "bufferView": 1,
      "byteOffset": 55832,
      "componentType": 5126,
      "count": 118,
      "max": [
        0.8653697967529297,
        0.2160871922969818
      ],
      "min": [
        0.6526024341583252,
        0.0006054010591469705
      ],
      "type": "VEC2"
    },
    {
      "bufferView": 1,
      "byteOffset": 56776,
      "componentType": 5126,
      "count": 118,
      "max": [
        0.8653697967529297,
        0.2160871922969818
      ],
      "min": [
        0.6526024341583252,
        0.0006054010591469705
      ],
      "type": "VEC2"
    },
    {
      "bufferView": 0,
      "byteOffset": 29976,
      "componentType": 5125,
      "count": 522,
      "type": "SCALAR"
    }
  ],
  "asset": {
    "extras": {
      "author": "r4m (https://sketchfab.com/r4m)",
      "license": "CC-BY-4.0 (http://creativecommons.org/licenses/by/4.0/)",
      "source": "https://sketchfab.com/3d-models/prc-152-00e19a0326c84dabb2a995d92985470b",
      "title": "PRC 152"
    },
    "generator": "Sketchfab-12.65.0",
    "version": "2.0"
  },
  "bufferViews": [
    {
      "buffer": 0,
      "byteLength": 32064,
      "name": "floatBufferViews",
      "target": 34963
    },
    {
      "buffer": 0,
      "byteLength": 57720,
      "byteOffset": 32064,
      "byteStride": 8,
      "name": "floatBufferViews",
      "target": 34962
    },
    {
      "buffer": 0,
      "byteLength": 57720,
      "byteOffset": 89784,
      "byteStride": 12,
      "name": "floatBufferViews",
      "target": 34962
    },
    {
      "buffer": 0,
      "byteLength": 38480,
      "byteOffset": 147504,
      "byteStride": 16,
      "name": "floatBufferViews",
      "target": 34962
    }
  ],
  "buffers": [
    {
      "byteLength": 185984,
      "uri": "scene.bin"
    }
  ],
  "images": [
    {
      "uri": "textures/material_baseColor.jpeg"
    },
    {
      "uri": "textures/material_metallicRoughness.png"
    },
    {
      "uri": "textures/material_emissive.jpeg"
    },
    {
      "uri": "textures/material_normal.png"
    }
  ],
  "materials": [
    {
      "doubleSided": true,
      "emissiveFactor": [
        1.0,
        1.0,
        1.0
      ],
      "emissiveTexture": {
        "index": 2
      },
      "name": "material",
      "normalTexture": {
        "index": 3
      },
      "occlusionTexture": {
        "index": 1
      },
      "pbrMetallicRoughness": {
        "baseColorTexture": {
          "index": 0
        },
        "metallicRoughnessTexture": {
          "index": 1
        }
      }
    }
  ],
  "meshes": [
    {
      "name": "Radio_low_Low_0",
      "primitives": [
        {
          "attributes": {
            "NORMAL": 1,
            "POSITION": 0,
            "TANGENT": 2,
            "TEXCOORD_0": 3,
            "TEXCOORD_1": 4,
            "TEXCOORD_2": 5
          },
          "indices": 6,
          "material": 0,
          "mode": 4
        }
      ]
    },
    {
      "name": "Detail_low.001_Low_0",
      "primitives": [
        {
          "attributes": {
            "NORMAL": 8,
            "POSITION": 7,
            "TANGENT": 9,
            "TEXCOORD_0": 10,
            "TEXCOORD_1": 11,
            "TEXCOORD_2": 12
          },
          "indices": 13,
          "material": 0,
          "mode": 4
        }
      ]
    },
    {
      "name": "Control_low_Low_0",
      "primitives": [
        {
          "attributes": {
            "NORMAL": 15,
            "POSITION": 14,
            "TANGENT": 16,
            "TEXCOORD_0": 17,
            "TEXCOORD_1": 18,
            "TEXCOORD_2": 19
          },
          "indices": 20,
          "material": 0,
          "mode": 4
        }
      ]
    }
  ],
  "nodes": [
    {
      "children": [
        1
      ],
      "matrix": [
        0.002831367775797844,
        0.0,
        0.0,
        0.0,
        0.0,
        6.286899391744969e-19,
        -0.002831367775797844,
        0.0,
        0.0,
        0.002831367775797844,
        6.286899391744969e-19,
        0.0,
        0.0,
        0.0,
        0.0,
        1.0
      ],
      "name": "Sketchfab_model"
    },
    {
      "children": [
        2
      ],
      "matrix": [
        1.0,
        0.0,
        0.0,
        0.0,
        0.0,
        0.0,
        1.0,
        0.0,
        0.0,
        -1.0,
        0.0,
        0.0,
        0.0,
        0.0,
        0.0,
        1.0
      ],
      "name": "Low 3.fbx"
    },
    {
      "children": [
        3
      ],
      "name": "Object_2"
    },
    {
      "children": [
        4,
        6,
        8
      ],
      "name": "RootNode"
    },
    {
      "children": [
        5
      ],
      "name": "Radio_low",
      "rotation": [
        -0.7071068286895752,
        0.0,
        0.0,
        0.7071067094802856
      ],
      "scale": [
        100.0,
        100.0,
        100.0
      ],
      "translation": [
        1.6212142705917358,
        -10.699834823608398,
        314.98504638671875
      ]
    },
    {
      "mesh": 0,
      "name": "Radio_low_Low_0"
    },
    {
      "children": [
        7
      ],
      "name": "Detail_low.001",
      "rotation": [
        -0.7071068286895752,
        0.0,
        0.0,
        0.7071067094802856
      ],
      "scale": [
        100.0,
        100.0,
        100.0
      ],
      "translation": [
        -5.051403999328613,
        68.45306396484375,
        327.03460693359375
      ]
    },
    {
      "mesh": 1,
      "name": "Detail_low.001_Low_0"
    },
    {
      "children": [
        9
      ],
      "name": "Control_low",
      "rotation": [
        -0.7071068286895752,
        0.0,
        0.0,
        0.7071067094802856
      ],
      "scale": [
        100.0,
        100.0,
        100.0
      ],
      "translation": [
        -5.051403999328613,
        68.45306396484375,
        327.03460693359375
      ]
    },
    {
      "mesh": 2,
      "name": "Control_low_Low_0"
    }
  ],
  "samplers": [
    {
      "magFilter": 9729,
      "minFilter": 9987,
      "wrapS": 10497,
      "wrapT": 10497
    }
  ],
  "scene": 0,
  "scenes": [
    {
      "name": "Sketchfab_Scene",
      "nodes": [
        0
      ]
    }
  ],
  "textures": [
    {
      "sampler": 0,
      "source": 0
    },
    {
      "sampler": 0,
      "source": 1
    },
    {
      "sampler": 0,
      "source": 2
    },
    {
      "sampler": 0,
      "source": 3
    }
  ]
}
